# xmcd
#
# Track frame offsets: 
#        150
#        21360
#        32058
#        44555
#        55183
#        67580
#        82258
#        93148
#        105648
#        116855
#
# Disc length: 1722 seconds
#
# Revision: 4
# Processed by: cddbd v1.5.2PL0 Copyright (c) Steve Scherf et al.
# Submitted via: ExactAudioCopy v0.99pb5
#
DISCID=8006b80a
DTITLE=Various Artist - Billboard Top Country Hits 1960
DYEAR=1990
DGENRE=Country
TTITLE0=Marty Robbins - El Paso
TTITLE1=Ferlin Husky - Wings Of A Dove
TTITLE2=Don Gibson - Just One Time
TTITLE3=Jim Reeves - He'll Have To Go
TTITLE4=Jeanne Black - He'll Have To Stay
TTITLE5=Johnny Horton - Sink The Bismarck
TTITLE6=Hank Locklin - Please Help Me I'm Falling
TTITLE7=Skeeter Davis - (I Can't Help You) I'm Falling Too
TTITLE8=Buck Owens - Excuse Me (I Think I've Got A Heartache)
TTITLE9=Ray Price - One More Time
EXTD=YEAR: 1960
EXTT0=
EXTT1=
EXTT2=
EXTT3=
EXTT4=
EXTT5=
EXTT6=
EXTT7=
EXTT8=
EXTT9=
PLAYORDER=
